<mxfile host="65bd71144e" modified="2021-01-18T19:00:29.113Z" agent="5.0 (Windows NT 10.0; Win64; x64) AppleWebKit/537.36 (KHTML, like Gecko) Code/1.52.1 Chrome/83.0.4103.122 Electron/9.3.5 Safari/537.36" version="13.10.0" etag="6dL8tft4EQCKKnwDX0nr" type="embed">
    <diagram id="kV4YSQThQ1plXjTBQZ2n" name="Page-1">
        <mxGraphModel dx="1374" dy="790" grid="1" gridSize="10" guides="1" tooltips="1" connect="1" arrows="1" fold="1" page="1" pageScale="1" pageWidth="1169" pageHeight="827" math="0" shadow="0">
            <root>
                <mxCell id="0"/>
                <mxCell id="1" parent="0"/>
                <mxCell id="8" value="" style="edgeStyle=orthogonalEdgeStyle;curved=1;rounded=1;sketch=0;orthogonalLoop=1;jettySize=auto;html=1;" edge="1" parent="1" source="2" target="3">
                    <mxGeometry relative="1" as="geometry"/>
                </mxCell>
                <mxCell id="2" value="alimentation" style="whiteSpace=wrap;html=1;aspect=fixed;sketch=0;rounded=1;" vertex="1" parent="1">
                    <mxGeometry x="90" y="160" width="80" height="80" as="geometry"/>
                </mxCell>
                <mxCell id="9" value="" style="edgeStyle=orthogonalEdgeStyle;curved=1;rounded=1;sketch=0;orthogonalLoop=1;jettySize=auto;html=1;" edge="1" parent="1" source="3" target="4">
                    <mxGeometry relative="1" as="geometry"/>
                </mxCell>
                <mxCell id="3" value="shunt 0.1Ohm" style="whiteSpace=wrap;html=1;aspect=fixed;sketch=0;rounded=1;" vertex="1" parent="1">
                    <mxGeometry x="230" y="160" width="80" height="80" as="geometry"/>
                </mxCell>
                <mxCell id="10" value="" style="edgeStyle=orthogonalEdgeStyle;curved=1;rounded=1;sketch=0;orthogonalLoop=1;jettySize=auto;html=1;" edge="1" parent="1" source="4" target="5">
                    <mxGeometry relative="1" as="geometry"/>
                </mxCell>
                <mxCell id="4" value="Alim 3V8" style="whiteSpace=wrap;html=1;aspect=fixed;sketch=0;rounded=1;" vertex="1" parent="1">
                    <mxGeometry x="380" y="160" width="80" height="80" as="geometry"/>
                </mxCell>
                <mxCell id="11" value="" style="edgeStyle=orthogonalEdgeStyle;curved=1;rounded=1;sketch=0;orthogonalLoop=1;jettySize=auto;html=1;" edge="1" parent="1" source="5" target="6">
                    <mxGeometry relative="1" as="geometry"/>
                </mxCell>
                <mxCell id="5" value="shunt 0.1Ohm" style="whiteSpace=wrap;html=1;aspect=fixed;sketch=0;rounded=1;" vertex="1" parent="1">
                    <mxGeometry x="530" y="160" width="80" height="80" as="geometry"/>
                </mxCell>
                <mxCell id="13" value="" style="edgeStyle=orthogonalEdgeStyle;curved=1;rounded=1;sketch=0;orthogonalLoop=1;jettySize=auto;html=1;startArrow=classic;startFill=1;" edge="1" parent="1" source="6" target="7">
                    <mxGeometry relative="1" as="geometry"/>
                </mxCell>
                <mxCell id="23" style="edgeStyle=orthogonalEdgeStyle;curved=1;rounded=1;sketch=0;orthogonalLoop=1;jettySize=auto;html=1;entryX=0.5;entryY=0;entryDx=0;entryDy=0;startArrow=none;startFill=0;" edge="1" parent="1" source="6" target="22">
                    <mxGeometry relative="1" as="geometry"/>
                </mxCell>
                <mxCell id="6" value="SIMCOM" style="whiteSpace=wrap;html=1;aspect=fixed;sketch=0;rounded=1;" vertex="1" parent="1">
                    <mxGeometry x="690" y="160" width="80" height="80" as="geometry"/>
                </mxCell>
                <mxCell id="7" value="NRF52" style="whiteSpace=wrap;html=1;aspect=fixed;sketch=0;rounded=1;" vertex="1" parent="1">
                    <mxGeometry x="690" y="340" width="80" height="80" as="geometry"/>
                </mxCell>
                <mxCell id="15" style="edgeStyle=orthogonalEdgeStyle;curved=1;rounded=1;sketch=0;orthogonalLoop=1;jettySize=auto;html=1;startArrow=none;startFill=0;" edge="1" parent="1" source="14">
                    <mxGeometry relative="1" as="geometry">
                        <mxPoint x="205" y="200" as="targetPoint"/>
                    </mxGeometry>
                </mxCell>
                <mxCell id="14" value="adc+" style="ellipse;whiteSpace=wrap;html=1;aspect=fixed;rounded=1;sketch=0;" vertex="1" parent="1">
                    <mxGeometry x="180" y="320" width="50" height="50" as="geometry"/>
                </mxCell>
                <mxCell id="17" style="edgeStyle=orthogonalEdgeStyle;curved=1;rounded=1;sketch=0;orthogonalLoop=1;jettySize=auto;html=1;startArrow=none;startFill=0;" edge="1" parent="1" source="16">
                    <mxGeometry relative="1" as="geometry">
                        <mxPoint x="335" y="200" as="targetPoint"/>
                    </mxGeometry>
                </mxCell>
                <mxCell id="16" value="adc-" style="ellipse;whiteSpace=wrap;html=1;aspect=fixed;rounded=1;sketch=0;" vertex="1" parent="1">
                    <mxGeometry x="310" y="320" width="50" height="50" as="geometry"/>
                </mxCell>
                <mxCell id="19" style="edgeStyle=orthogonalEdgeStyle;curved=1;rounded=1;sketch=0;orthogonalLoop=1;jettySize=auto;html=1;startArrow=none;startFill=0;" edge="1" parent="1" source="18">
                    <mxGeometry relative="1" as="geometry">
                        <mxPoint x="655" y="200" as="targetPoint"/>
                    </mxGeometry>
                </mxCell>
                <mxCell id="18" value="sense+" style="ellipse;whiteSpace=wrap;html=1;aspect=fixed;rounded=1;sketch=0;" vertex="1" parent="1">
                    <mxGeometry x="630" y="320" width="50" height="50" as="geometry"/>
                </mxCell>
                <mxCell id="20" value="maxi 81.92mV&lt;br&gt;Total : 819mA" style="text;html=1;strokeColor=none;fillColor=none;align=center;verticalAlign=middle;whiteSpace=wrap;rounded=0;sketch=0;" vertex="1" parent="1">
                    <mxGeometry x="240" y="90" width="40" height="20" as="geometry"/>
                </mxCell>
                <mxCell id="21" value="AGND" style="ellipse;whiteSpace=wrap;html=1;aspect=fixed;rounded=1;sketch=0;" vertex="1" parent="1">
                    <mxGeometry x="470" y="330" width="50" height="50" as="geometry"/>
                </mxCell>
                <mxCell id="22" value="Serial&amp;nbsp;" style="whiteSpace=wrap;html=1;aspect=fixed;rounded=1;sketch=0;" vertex="1" parent="1">
                    <mxGeometry x="810" y="340" width="80" height="80" as="geometry"/>
                </mxCell>
            </root>
        </mxGraphModel>
    </diagram>
</mxfile>